<mxfile host="app.diagrams.net" modified="2023-05-12T15:35:55.735Z" agent="Mozilla/5.0 (Windows NT 10.0; Win64; x64; rv:109.0) Gecko/20100101 Firefox/113.0" etag="ObMIVW7T_UdTIB-YSErq" version="21.2.9" type="github">
  <diagram name="Pagina-1" id="YaCgOV6bC5pr7ejjGXxi">
    <mxGraphModel dx="956" dy="503" grid="1" gridSize="10" guides="1" tooltips="1" connect="1" arrows="1" fold="1" page="1" pageScale="1" pageWidth="827" pageHeight="1169" math="0" shadow="0">
      <root>
        <mxCell id="0" />
        <mxCell id="1" parent="0" />
        <mxCell id="npUMTWKMbu3V_MuyzJ62-2" value="evento" style="rounded=0;whiteSpace=wrap;html=1;fillColor=#fff2cc;strokeColor=#d6b656;fontStyle=1;horizontal=1;verticalAlign=middle;" vertex="1" parent="1">
          <mxGeometry x="395" y="360" width="70" height="40" as="geometry" />
        </mxCell>
        <mxCell id="npUMTWKMbu3V_MuyzJ62-3" value="utente" style="rounded=0;whiteSpace=wrap;html=1;fillColor=#fff2cc;strokeColor=#d6b656;fontStyle=1;horizontal=1;verticalAlign=middle;" vertex="1" parent="1">
          <mxGeometry x="395" y="610" width="70" height="40" as="geometry" />
        </mxCell>
        <mxCell id="npUMTWKMbu3V_MuyzJ62-7" style="rounded=0;orthogonalLoop=1;jettySize=auto;html=1;endArrow=none;endFill=0;exitX=0.5;exitY=1;exitDx=0;exitDy=0;entryX=0.5;entryY=0;entryDx=0;entryDy=0;fillColor=#fff2cc;strokeColor=#d6b656;fontStyle=1;horizontal=1;verticalAlign=middle;" edge="1" parent="1" source="npUMTWKMbu3V_MuyzJ62-4" target="npUMTWKMbu3V_MuyzJ62-3">
          <mxGeometry relative="1" as="geometry" />
        </mxCell>
        <mxCell id="npUMTWKMbu3V_MuyzJ62-8" style="rounded=0;orthogonalLoop=1;jettySize=auto;html=1;entryX=0.5;entryY=1;entryDx=0;entryDy=0;endArrow=none;endFill=0;exitX=0.5;exitY=0;exitDx=0;exitDy=0;fillColor=#fff2cc;strokeColor=#d6b656;fontStyle=1;horizontal=1;verticalAlign=middle;" edge="1" parent="1" source="npUMTWKMbu3V_MuyzJ62-4" target="npUMTWKMbu3V_MuyzJ62-2">
          <mxGeometry relative="1" as="geometry" />
        </mxCell>
        <mxCell id="npUMTWKMbu3V_MuyzJ62-4" value="crea" style="rhombus;whiteSpace=wrap;html=1;fillColor=#fff2cc;strokeColor=#d6b656;fontStyle=1;horizontal=1;verticalAlign=middle;" vertex="1" parent="1">
          <mxGeometry x="440" y="450" width="80" height="80" as="geometry" />
        </mxCell>
        <mxCell id="npUMTWKMbu3V_MuyzJ62-22" style="rounded=0;orthogonalLoop=1;jettySize=auto;html=1;entryX=0;entryY=0.5;entryDx=0;entryDy=0;endArrow=none;endFill=0;fillColor=#fff2cc;strokeColor=#d6b656;fontStyle=1;horizontal=1;verticalAlign=middle;" edge="1" parent="1" source="npUMTWKMbu3V_MuyzJ62-11" target="npUMTWKMbu3V_MuyzJ62-3">
          <mxGeometry relative="1" as="geometry" />
        </mxCell>
        <mxCell id="npUMTWKMbu3V_MuyzJ62-11" value="id _utente" style="ellipse;whiteSpace=wrap;html=1;fillColor=#fff2cc;strokeColor=#d6b656;fontStyle=5;horizontal=1;verticalAlign=middle;" vertex="1" parent="1">
          <mxGeometry x="300" y="562" width="60" height="44" as="geometry" />
        </mxCell>
        <mxCell id="npUMTWKMbu3V_MuyzJ62-17" style="rounded=0;orthogonalLoop=1;jettySize=auto;html=1;entryX=1;entryY=0.5;entryDx=0;entryDy=0;endArrow=none;endFill=0;fillColor=#fff2cc;strokeColor=#d6b656;fontStyle=1;horizontal=1;verticalAlign=middle;" edge="1" parent="1" source="npUMTWKMbu3V_MuyzJ62-12" target="npUMTWKMbu3V_MuyzJ62-3">
          <mxGeometry relative="1" as="geometry" />
        </mxCell>
        <mxCell id="npUMTWKMbu3V_MuyzJ62-12" value="nome" style="ellipse;whiteSpace=wrap;html=1;fillColor=#fff2cc;strokeColor=#d6b656;fontStyle=1;horizontal=1;verticalAlign=middle;" vertex="1" parent="1">
          <mxGeometry x="490" y="552" width="60" height="54" as="geometry" />
        </mxCell>
        <mxCell id="npUMTWKMbu3V_MuyzJ62-18" style="rounded=0;orthogonalLoop=1;jettySize=auto;html=1;entryX=1;entryY=0.5;entryDx=0;entryDy=0;endArrow=none;endFill=0;fillColor=#fff2cc;strokeColor=#d6b656;fontStyle=1;horizontal=1;verticalAlign=middle;" edge="1" parent="1" source="npUMTWKMbu3V_MuyzJ62-13" target="npUMTWKMbu3V_MuyzJ62-3">
          <mxGeometry relative="1" as="geometry" />
        </mxCell>
        <mxCell id="npUMTWKMbu3V_MuyzJ62-13" value="email" style="ellipse;whiteSpace=wrap;html=1;fillColor=#fff2cc;strokeColor=#d6b656;fontStyle=1;horizontal=1;verticalAlign=middle;" vertex="1" parent="1">
          <mxGeometry x="520" y="610" width="60" height="60" as="geometry" />
        </mxCell>
        <mxCell id="npUMTWKMbu3V_MuyzJ62-19" style="rounded=0;orthogonalLoop=1;jettySize=auto;html=1;entryX=1;entryY=0.5;entryDx=0;entryDy=0;endArrow=none;endFill=0;fillColor=#fff2cc;strokeColor=#d6b656;fontStyle=1;horizontal=1;verticalAlign=middle;" edge="1" parent="1" source="npUMTWKMbu3V_MuyzJ62-14" target="npUMTWKMbu3V_MuyzJ62-3">
          <mxGeometry relative="1" as="geometry" />
        </mxCell>
        <mxCell id="npUMTWKMbu3V_MuyzJ62-14" value="cognome" style="ellipse;whiteSpace=wrap;html=1;fillColor=#fff2cc;strokeColor=#d6b656;fontStyle=1;horizontal=1;verticalAlign=middle;" vertex="1" parent="1">
          <mxGeometry x="450" y="670" width="70" height="60" as="geometry" />
        </mxCell>
        <mxCell id="npUMTWKMbu3V_MuyzJ62-20" style="rounded=0;orthogonalLoop=1;jettySize=auto;html=1;entryX=0.5;entryY=1;entryDx=0;entryDy=0;endArrow=none;endFill=0;fillColor=#fff2cc;strokeColor=#d6b656;fontStyle=1;horizontal=1;verticalAlign=middle;" edge="1" parent="1" source="npUMTWKMbu3V_MuyzJ62-15" target="npUMTWKMbu3V_MuyzJ62-3">
          <mxGeometry relative="1" as="geometry" />
        </mxCell>
        <mxCell id="npUMTWKMbu3V_MuyzJ62-15" value="nickname" style="ellipse;whiteSpace=wrap;html=1;fillColor=#fff2cc;strokeColor=#d6b656;fontStyle=1;horizontal=1;verticalAlign=middle;" vertex="1" parent="1">
          <mxGeometry x="350" y="670" width="70" height="60" as="geometry" />
        </mxCell>
        <mxCell id="npUMTWKMbu3V_MuyzJ62-21" style="rounded=0;orthogonalLoop=1;jettySize=auto;html=1;entryX=0;entryY=0.5;entryDx=0;entryDy=0;endArrow=none;endFill=0;fillColor=#fff2cc;strokeColor=#d6b656;fontStyle=1;horizontal=1;verticalAlign=middle;" edge="1" parent="1" source="npUMTWKMbu3V_MuyzJ62-16" target="npUMTWKMbu3V_MuyzJ62-3">
          <mxGeometry relative="1" as="geometry" />
        </mxCell>
        <mxCell id="npUMTWKMbu3V_MuyzJ62-16" value="admin" style="ellipse;whiteSpace=wrap;html=1;fillColor=#fff2cc;strokeColor=#d6b656;fontStyle=1;horizontal=1;verticalAlign=middle;" vertex="1" parent="1">
          <mxGeometry x="290" y="620" width="60" height="50" as="geometry" />
        </mxCell>
        <mxCell id="npUMTWKMbu3V_MuyzJ62-30" style="rounded=0;orthogonalLoop=1;jettySize=auto;html=1;entryX=0.5;entryY=0;entryDx=0;entryDy=0;endArrow=none;endFill=0;fillColor=#fff2cc;strokeColor=#d6b656;fontStyle=1;horizontal=1;verticalAlign=middle;" edge="1" parent="1" source="npUMTWKMbu3V_MuyzJ62-23" target="npUMTWKMbu3V_MuyzJ62-2">
          <mxGeometry relative="1" as="geometry" />
        </mxCell>
        <mxCell id="npUMTWKMbu3V_MuyzJ62-23" value="id_evento" style="ellipse;whiteSpace=wrap;html=1;fillColor=#fff2cc;strokeColor=#d6b656;fontStyle=5;horizontal=1;verticalAlign=middle;" vertex="1" parent="1">
          <mxGeometry x="334" y="260" width="70" height="40" as="geometry" />
        </mxCell>
        <mxCell id="npUMTWKMbu3V_MuyzJ62-34" style="rounded=0;orthogonalLoop=1;jettySize=auto;html=1;entryX=0;entryY=0.5;entryDx=0;entryDy=0;endArrow=none;endFill=0;fillColor=#fff2cc;strokeColor=#d6b656;fontStyle=1;horizontal=1;verticalAlign=middle;" edge="1" parent="1" source="npUMTWKMbu3V_MuyzJ62-24" target="npUMTWKMbu3V_MuyzJ62-2">
          <mxGeometry relative="1" as="geometry" />
        </mxCell>
        <mxCell id="npUMTWKMbu3V_MuyzJ62-24" value="luogo" style="ellipse;whiteSpace=wrap;html=1;fillColor=#fff2cc;strokeColor=#d6b656;fontStyle=1;horizontal=1;verticalAlign=middle;" vertex="1" parent="1">
          <mxGeometry x="285" y="390" width="60" height="50" as="geometry" />
        </mxCell>
        <mxCell id="npUMTWKMbu3V_MuyzJ62-35" style="rounded=0;orthogonalLoop=1;jettySize=auto;html=1;entryX=0.5;entryY=0;entryDx=0;entryDy=0;endArrow=none;endFill=0;fillColor=#fff2cc;strokeColor=#d6b656;fontStyle=1;horizontal=1;verticalAlign=middle;" edge="1" parent="1" source="npUMTWKMbu3V_MuyzJ62-26" target="npUMTWKMbu3V_MuyzJ62-2">
          <mxGeometry relative="1" as="geometry" />
        </mxCell>
        <mxCell id="npUMTWKMbu3V_MuyzJ62-26" value="descrizione" style="ellipse;whiteSpace=wrap;html=1;fillColor=#fff2cc;strokeColor=#d6b656;fontStyle=1;horizontal=1;verticalAlign=middle;" vertex="1" parent="1">
          <mxGeometry x="285" y="300" width="70" height="50" as="geometry" />
        </mxCell>
        <mxCell id="npUMTWKMbu3V_MuyzJ62-31" style="rounded=0;orthogonalLoop=1;jettySize=auto;html=1;endArrow=none;endFill=0;fillColor=#fff2cc;strokeColor=#d6b656;fontStyle=1;horizontal=1;verticalAlign=middle;" edge="1" parent="1" source="npUMTWKMbu3V_MuyzJ62-27">
          <mxGeometry relative="1" as="geometry">
            <mxPoint x="430" y="360" as="targetPoint" />
          </mxGeometry>
        </mxCell>
        <mxCell id="npUMTWKMbu3V_MuyzJ62-27" value="data" style="ellipse;whiteSpace=wrap;html=1;fillColor=#fff2cc;strokeColor=#d6b656;fontStyle=1;horizontal=1;verticalAlign=middle;" vertex="1" parent="1">
          <mxGeometry x="415" y="260" width="50" height="40" as="geometry" />
        </mxCell>
        <mxCell id="npUMTWKMbu3V_MuyzJ62-42" style="rounded=0;orthogonalLoop=1;jettySize=auto;html=1;entryX=1;entryY=0.5;entryDx=0;entryDy=0;endArrow=none;endFill=0;fillColor=#fff2cc;strokeColor=#d6b656;fontStyle=1;horizontal=1;verticalAlign=middle;" edge="1" parent="1" source="npUMTWKMbu3V_MuyzJ62-28" target="npUMTWKMbu3V_MuyzJ62-2">
          <mxGeometry relative="1" as="geometry" />
        </mxCell>
        <mxCell id="npUMTWKMbu3V_MuyzJ62-28" value="titolo" style="ellipse;whiteSpace=wrap;html=1;fillColor=#fff2cc;strokeColor=#d6b656;fontStyle=1;horizontal=1;verticalAlign=middle;" vertex="1" parent="1">
          <mxGeometry x="500" y="360" width="70" height="70" as="geometry" />
        </mxCell>
        <mxCell id="npUMTWKMbu3V_MuyzJ62-32" style="rounded=0;orthogonalLoop=1;jettySize=auto;html=1;entryX=0.5;entryY=0;entryDx=0;entryDy=0;endArrow=none;endFill=0;fillColor=#fff2cc;strokeColor=#d6b656;fontStyle=1;horizontal=1;verticalAlign=middle;" edge="1" parent="1" source="npUMTWKMbu3V_MuyzJ62-29" target="npUMTWKMbu3V_MuyzJ62-2">
          <mxGeometry relative="1" as="geometry" />
        </mxCell>
        <mxCell id="npUMTWKMbu3V_MuyzJ62-29" value="max_numero_partecipanti" style="ellipse;whiteSpace=wrap;html=1;fillColor=#fff2cc;strokeColor=#d6b656;fontStyle=1;horizontal=1;verticalAlign=middle;" vertex="1" parent="1">
          <mxGeometry x="480" y="290" width="70" height="50" as="geometry" />
        </mxCell>
        <mxCell id="npUMTWKMbu3V_MuyzJ62-44" style="rounded=0;orthogonalLoop=1;jettySize=auto;html=1;entryX=0.75;entryY=1;entryDx=0;entryDy=0;endArrow=none;endFill=0;exitX=0.483;exitY=0.965;exitDx=0;exitDy=0;exitPerimeter=0;fillColor=#fff2cc;strokeColor=#d6b656;fontStyle=1;horizontal=1;verticalAlign=middle;" edge="1" parent="1" source="npUMTWKMbu3V_MuyzJ62-43">
          <mxGeometry relative="1" as="geometry">
            <mxPoint x="429" y="610" as="targetPoint" />
          </mxGeometry>
        </mxCell>
        <mxCell id="npUMTWKMbu3V_MuyzJ62-45" style="rounded=0;orthogonalLoop=1;jettySize=auto;html=1;entryX=0.75;entryY=0;entryDx=0;entryDy=0;endArrow=none;endFill=0;exitX=0.5;exitY=0;exitDx=0;exitDy=0;fillColor=#fff2cc;strokeColor=#d6b656;fontStyle=1;horizontal=1;verticalAlign=middle;" edge="1" parent="1" source="npUMTWKMbu3V_MuyzJ62-43">
          <mxGeometry relative="1" as="geometry">
            <mxPoint x="429" y="400" as="targetPoint" />
          </mxGeometry>
        </mxCell>
        <mxCell id="npUMTWKMbu3V_MuyzJ62-43" value="registra" style="rhombus;whiteSpace=wrap;html=1;fillColor=#fff2cc;strokeColor=#d6b656;fontStyle=1;horizontal=1;verticalAlign=middle;" vertex="1" parent="1">
          <mxGeometry x="334" y="450" width="80" height="80" as="geometry" />
        </mxCell>
        <mxCell id="npUMTWKMbu3V_MuyzJ62-47" value="N" style="text;html=1;align=center;verticalAlign=middle;whiteSpace=wrap;rounded=0;fontStyle=3;horizontal=1;" vertex="1" parent="1">
          <mxGeometry x="420" y="390" width="60" height="30" as="geometry" />
        </mxCell>
        <mxCell id="npUMTWKMbu3V_MuyzJ62-48" value="1" style="text;html=1;align=center;verticalAlign=middle;whiteSpace=wrap;rounded=0;fontStyle=3;horizontal=1;" vertex="1" parent="1">
          <mxGeometry x="420" y="584.5" width="60" height="30" as="geometry" />
        </mxCell>
        <mxCell id="npUMTWKMbu3V_MuyzJ62-49" value="1" style="text;html=1;align=center;verticalAlign=middle;whiteSpace=wrap;rounded=0;fontStyle=3;horizontal=1;" vertex="1" parent="1">
          <mxGeometry x="380" y="390" width="60" height="30" as="geometry" />
        </mxCell>
        <mxCell id="npUMTWKMbu3V_MuyzJ62-50" value="N" style="text;html=1;align=center;verticalAlign=middle;whiteSpace=wrap;rounded=0;fontStyle=3;horizontal=1;" vertex="1" parent="1">
          <mxGeometry x="380" y="584.5" width="60" height="30" as="geometry" />
        </mxCell>
        <mxCell id="npUMTWKMbu3V_MuyzJ62-56" style="rounded=0;orthogonalLoop=1;jettySize=auto;html=1;entryX=0;entryY=0.5;entryDx=0;entryDy=0;endArrow=none;endFill=0;fillColor=#fff2cc;strokeColor=#d6b656;" edge="1" parent="1" source="npUMTWKMbu3V_MuyzJ62-55" target="npUMTWKMbu3V_MuyzJ62-2">
          <mxGeometry relative="1" as="geometry" />
        </mxCell>
        <mxCell id="npUMTWKMbu3V_MuyzJ62-55" value="categoria" style="ellipse;whiteSpace=wrap;html=1;fillColor=#fff2cc;strokeColor=#d6b656;fontStyle=1;horizontal=1;verticalAlign=middle;" vertex="1" parent="1">
          <mxGeometry x="215" y="330" width="70" height="50" as="geometry" />
        </mxCell>
      </root>
    </mxGraphModel>
  </diagram>
</mxfile>
